<?xml version="1.0" encoding="utf-8"?>
<!-- Generator: Adobe Illustrator 23.0.1, SVG Export Plug-In . SVG Version: 6.00 Build 0)  -->
<svg version="1.1" id="Layer_1" xmlns="http://www.w3.org/2000/svg" xmlns:xlink="http://www.w3.org/1999/xlink" x="0px" y="0px"
	 viewBox="0 0 150 169" style="enable-background:new 0 0 150 169;" xml:space="preserve">
<style type="text/css">
	.st0{fill:#8B8B8B;}
</style>
<g>
	<path class="st0" d="M112.027,21.863l-13.91-14.15V18.89c0,1.678,1.553,2.973,3.421,2.973H112.027z"/>
	<path class="st0" d="M126.596,113.219H23.774V165h102.822V113.219z M44.98,125.795h23.425c1.634,0,2.959,1.325,2.959,2.959
		c0,1.634-1.325,2.959-2.959,2.959H44.98c-1.634,0-2.959-1.325-2.959-2.959C42.021,127.119,43.346,125.795,44.98,125.795z
		 M105.391,153.904H44.98c-1.634,0-2.959-1.325-2.959-2.959s1.325-2.959,2.959-2.959h60.411c1.634,0,2.959,1.325,2.959,2.959
		S107.026,153.904,105.391,153.904z M105.391,142.808H44.98c-1.634,0-2.959-1.325-2.959-2.959c0-1.634,1.325-2.959,2.959-2.959
		h60.411c1.634,0,2.959,1.325,2.959,2.959C108.35,141.484,107.026,142.808,105.391,142.808z"/>
	<path class="st0" d="M11.014,120.986h6.842v-10.698c0.057-1.663,1.419-2.982,3.083-2.987h108.494
		c1.663,0.005,3.026,1.323,3.081,2.987v10.698h6.842c4.488,0,7.952-3.622,7.952-8.109v-19.63H2.692v19.63
		C2.692,117.364,6.527,120.986,11.014,120.986z"/>
	<path class="st0" d="M34.13,12.018v38.325h82.11V27.781h-14.702c-5.133,0-9.339-3.952-9.339-8.891V3H43.821
		C38.451,3,34.13,7.032,34.13,12.018z"/>
	<path class="st0" d="M147.308,64.548c0-4.487-3.464-8.286-7.952-8.286H11.014c-4.556,0.061-8.241,3.73-8.322,8.286v22.781h144.616
		V64.548z M119.568,81.763c-5.4,0-9.776-4.377-9.776-9.778c0-5.399,4.377-9.777,9.776-9.777c5.401,0,9.778,4.378,9.777,9.778
		C129.34,77.383,124.966,81.758,119.568,81.763z"/>
	<path class="st0" d="M123.428,71.986c0,2.131-1.728,3.859-3.859,3.859c-2.13,0-3.858-1.728-3.858-3.859
		c0-2.132,1.728-3.86,3.858-3.86C121.7,68.126,123.428,69.854,123.428,71.986z"/>
</g>
</svg>
